<svg width="101" height="64" viewBox="0 0 101 64" fill="none" xmlns="http://www.w3.org/2000/svg">
<g clip-path="url(#clip0_3069_283)">
<path d="M81.7199 38.0061C81.0234 38.1029 80.177 38.1382 79.4981 37.9929C76.2931 37.3107 74.3534 34.2693 75.0058 31.0827L75.6495 28.6707L84.4708 27.3987L83.7082 30.1012C83.598 30.4929 83.858 30.9639 84.1711 31.1663C84.5943 31.4392 84.9249 31.3864 85.4275 31.2764C86.9572 30.9506 87.376 31.0123 87.8742 29.1593L88.9014 25.3476C89.0865 24.6566 88.121 24.2121 87.6053 24.3001L84.6075 24.7667C83.6288 24.8987 82.6986 24.9691 81.742 24.6258C79.5069 23.8204 77.9154 21.4216 78.4841 19.0184L80.5737 11.6152C80.8118 10.7702 81.3408 9.99551 81.8257 9.26928C83.3819 6.92772 86.0358 5.48406 88.8264 5.09673L94.9057 4.20765C95.5537 4.11082 96.2944 4.08001 96.9336 4.22085C99.6051 4.81504 101.342 7.40308 100.804 10.0703L99.9137 13.1469C99.8608 13.2834 92.0666 14.3837 92.0666 14.3837C91.9961 14.3925 91.7933 14.3353 91.7448 14.3089C91.6963 14.2825 91.7801 14.146 91.8109 14.0844L92.3796 12.0906C92.459 11.8089 92.4325 11.5096 92.2562 11.2455C92.1239 11.0518 91.6831 10.867 91.4054 10.911L90.2371 11.1003C89.1791 11.1443 88.3811 11.6989 88.099 12.6936L87.2085 15.8406C87.0807 16.2895 87.0806 16.7033 87.3275 17.029C87.6493 17.4559 88.1034 17.4911 88.5972 17.4119L89.9991 17.1874C91.2158 16.9938 92.362 16.8133 93.6228 16.9365C94.1166 16.985 94.5883 17.2358 95.0688 17.4955C96.9556 18.5255 98.1107 20.7834 97.4979 22.9533L95.4788 30.0792C94.5222 33.4551 91.6258 36.2368 88.2224 37.007L81.7199 37.9973V38.0061Z" fill="#EEEEEE"/>
<path d="M92.1856 41.5184L91.9388 42.3723L0 64.0625L2.56132 55.0924L92.1856 41.5184Z" fill="#EEEEEE"/>
<path d="M12.8993 48.0194L24.6875 6.81335L11.1976 11.0739L8.94046 16.7694L13.6884 16.2148L4.22339 49.287L12.8993 48.0194Z" fill="#EEEEEE"/>
<path d="M72.7264 0.0792093C72.0872 -0.0440303 71.3201 -0.0132204 70.6809 0.0792093L64.4076 0.9815C62.6839 1.22798 60.969 1.54488 59.5054 2.522C58.7295 3.04136 58.0197 3.55193 57.4114 4.25615C56.4988 5.31249 55.6788 6.43926 55.2733 7.84771L47.4262 35.2289C47.2057 35.9904 47.3292 36.9279 47.4923 37.6101C47.8538 39.1506 48.7179 40.3742 50.0095 41.228C50.8692 41.8002 51.8699 42.2272 52.972 42.1171L61.1453 41.03C63.3187 40.7219 65.329 39.8636 66.9072 38.3539C68.4502 36.8794 69.301 35.1585 69.8785 33.1426L77.2231 7.45598C78.1797 4.10651 76.1342 0.730619 72.7264 0.0792093ZM68.3312 9.45863L61.7493 32.4208C61.5113 33.2483 60.8191 33.9437 59.9859 34.0537L57.5613 34.375C56.7104 34.4895 56.2299 33.4683 56.4371 32.7553L57.4378 29.2914L58.5884 25.2641L61.3614 15.581L62.1593 12.7993L63.0851 9.60387C63.3804 8.58715 64.2754 8.1382 65.2408 7.99295L66.581 7.79049C67.1012 7.71126 67.6434 7.66725 68.0358 8.06338C68.3797 8.41109 68.4943 8.88204 68.3312 9.45863Z" fill="#EEEEEE"/>
<path d="M49.8245 8.68406C49.15 5.383 46.0509 3.5124 42.8283 4.1374L36.0613 5.13212C32.3229 5.64708 28.8622 8.1823 27.7778 11.9499L20.2745 38.0239C20.0144 38.9262 19.7896 39.7493 19.8425 40.6251C20.0012 43.2088 21.7381 45.3302 24.1981 45.9993C25.1503 46.2589 25.9615 46.2061 26.9622 46.0565L34.3816 44.9385C37.882 44.3883 41.1002 41.4966 42.0656 38.1647L49.8289 11.0828C50.0406 10.339 49.97 9.38388 49.8289 8.68846L49.8245 8.68406ZM40.8092 13.5696L34.1965 36.6198C33.8835 37.7026 32.7152 38.1119 31.7322 38.2176C31.0136 38.2968 30.3214 38.5389 29.5985 38.3012C29.0518 38.1207 28.7653 37.4297 28.9284 36.8575L35.6292 13.4684C35.8585 12.6629 36.7755 12.2052 37.5117 12.082L39.4426 11.7606C39.8834 11.6858 40.4124 11.8795 40.6285 12.1832C40.9591 12.6453 40.9591 13.0283 40.8048 13.574L40.8092 13.5696Z" fill="#EEEEEE"/>
</g>
<defs>
<clipPath id="clip0_3069_283">
<rect width="101" height="64" fill="white"/>
</clipPath>
</defs>
</svg>
