<svg width="172" height="36" viewBox="0 0 172 36" fill="none" xmlns="http://www.w3.org/2000/svg">
<g clip-path="url(#clip0_3075_99)">
<path d="M96.4693 27.5343C95.422 27.5957 94.5044 27.5113 93.6654 26.9406C93.0546 26.4494 92.4952 25.888 92.0605 25.2036L88.2587 19.2209L82.783 27.4569C81.6179 27.6279 80.4908 27.5815 79.3499 27.3127C78.1944 27 77.1945 26.2316 76.8249 25.0745C76.5001 24.0569 76.6907 22.9808 77.1071 22.0273L78.2212 20.3626L83.3273 13.8054L76.4089 4.06808C77.3868 1.29095 80.3106 -0.227002 83.0221 1.00417C83.806 1.47824 84.4398 2.07397 84.9523 2.85071L88.693 8.52161L93.7097 1.12206C95.9463 0.158443 99.2518 0.672232 100.025 2.97362C100.401 4.09358 100.141 5.2725 99.5177 6.24238L97.2602 9.17419L93.3619 13.9371L100.446 24.0419C100.121 26.0234 98.5156 27.4156 96.4701 27.5351L96.4693 27.5343Z" fill="#EEEEEE"/>
<path d="M144.671 16.7313L136.243 16.7669L136.241 21.3258L147.436 21.3249C148.16 22.5879 148.39 24.0159 148.091 25.4666C147.887 26.4586 147.034 27.319 145.927 27.3181L132.43 27.3089C130.445 27.3077 128.846 25.6752 128.847 23.6794L128.855 4.42258C128.856 2.45271 130.475 0.870792 132.414 0.866611L147.277 0.834839C147.979 2.11617 148.204 3.52502 147.933 4.92215C147.721 6.01286 146.894 6.6738 145.772 6.80507L136.244 6.80967L136.24 10.8372L146.034 10.8351C146.78 12.0813 147.017 13.5696 146.676 15.037C146.468 15.9291 145.715 16.7272 144.672 16.7318L144.671 16.7313Z" fill="#EEEEEE"/>
<path d="M117.567 27.0326C115.911 27.3926 114.196 27.5418 112.531 27.3207C111.727 27.2141 111.035 26.9076 110.528 26.299C110.165 25.6907 109.937 25.0297 109.937 24.2609L109.931 6.93302L103.384 6.93135C102.665 5.62033 102.412 4.24285 102.669 2.78802C102.856 1.65593 103.796 0.717815 105.051 0.716978L124.304 0.700256C125.056 1.95525 125.318 3.45899 125.029 4.92929C124.814 6.02083 123.914 6.90292 122.745 6.90878L117.565 6.93428L117.567 27.0326Z" fill="#EEEEEE"/>
<path d="M170.289 21.1878C171.039 22.4875 171.291 23.9223 171.002 25.3909C170.795 26.4427 169.912 27.3186 168.745 27.3173L156.267 27.3048C154.32 27.3027 152.713 25.7183 152.71 23.7463L152.672 0.800154L154.689 0.492466C155.808 0.3219 156.924 0.350746 158.025 0.563535C159.605 0.868297 160.313 2.05975 160.313 3.6726L160.316 21.1907L170.288 21.1878H170.289Z" fill="#EEEEEE"/>
<path d="M44.5278 21.1866C45.3313 22.4583 45.5725 24.003 45.2335 25.5042C45.0065 26.5105 44.134 27.3177 43.0245 27.3169L30.5414 27.3064C28.6522 27.3048 26.9913 25.7701 26.9879 23.8303L26.9474 0.78385L28.9653 0.492049C30.1543 0.320228 31.3466 0.342385 32.4966 0.613284C34.0953 0.989533 34.5827 2.30682 34.5827 3.9226V21.1907L44.5274 21.1861L44.5278 21.1866Z" fill="#EEEEEE"/>
<path d="M22.5937 18.4533C22.2225 15.7606 20.1761 13.9902 17.6222 13.1938C19.1168 12.6365 20.304 11.7787 21.0636 10.4647C21.6962 9.37068 21.8095 8.16752 21.7079 6.91168C21.5398 4.82935 20.506 3.02796 18.7104 1.95022C16.5942 0.68017 13.9806 0.213203 11.4848 0.126666C8.57303 0.0259151 3.50496 0.17516 1.10074 1.44688C0.455261 1.78801 0 2.37078 0 3.13415L0.00125416 23.7977C0.00125416 24.9189 0.633352 25.8892 1.5723 26.4168C2.26376 26.8052 2.9686 27.0786 3.76708 27.245C7.29128 27.9791 10.9016 28.1233 14.4688 27.5911C16.1193 27.3449 17.6344 26.8788 19.0553 26.0799C21.9094 24.4754 22.9186 21.6368 22.5933 18.4537L22.5937 18.4533ZM7.41628 6.00367C9.24275 5.86237 11.3472 5.58603 12.9258 6.3841C13.8213 6.86528 14.2372 7.74068 14.1453 8.73063C13.9755 10.5609 12.5262 11.142 10.7444 11.1453L7.41628 11.1516V6.00325V6.00367ZM14.843 19.2087C14.8392 19.3124 14.8317 19.4153 14.82 19.5164C14.8142 19.567 14.8071 19.6176 14.7991 19.6673C14.7912 19.7171 14.782 19.7668 14.7715 19.8158C14.6678 20.3057 14.4471 20.7463 14.0516 21.0753C13.9684 21.1447 13.8823 21.21 13.7937 21.2718C13.4392 21.5181 13.0441 21.7024 12.6265 21.8278C12.522 21.8592 12.4162 21.8868 12.3092 21.9106C12.2557 21.9227 12.2017 21.9336 12.1478 21.9436C11.9856 21.9742 11.8209 21.9963 11.6553 22.0101C11.4768 22.0252 11.2987 22.0373 11.1211 22.0457C10.3209 22.0841 9.52661 22.0565 8.73482 21.9733C8.47103 21.9457 8.20724 21.9119 7.94386 21.8722C7.76828 21.8458 7.5927 21.8166 7.41711 21.7852L7.41628 16.4646L11.3598 16.4663C11.879 16.4663 12.3982 16.5508 12.8945 16.6707C13.009 16.6983 13.1223 16.728 13.2343 16.7589C14.2084 17.0637 14.8087 17.8225 14.8434 18.8952C14.8451 18.9479 14.8459 19.0001 14.8459 19.0524C14.8459 19.1046 14.8451 19.1569 14.843 19.2087Z" fill="#EEEEEE"/>
<path d="M73.9659 10.7172C73.5403 8.30966 72.5244 6.08896 70.8944 4.2721C67.2068 0.161371 60.9694 -0.84363 55.814 0.661782C51.5795 1.89839 48.659 4.89165 47.3471 9.07136C46.8304 10.7177 46.6732 12.3648 46.6741 14.0913C46.6749 16.2243 47.0119 18.2573 47.8233 20.2108C49.2363 23.6117 51.9683 26.1455 55.5096 27.2488C58.6396 28.2237 62.015 28.2563 65.219 27.3073C69.9509 25.906 73.0148 22.2651 73.9228 17.506C74.3551 15.2414 74.3676 12.9881 73.9659 10.7168V10.7172ZM66.0944 17.0244C65.5776 19.5825 63.8423 21.5544 61.1358 21.8107C58.0865 22.0992 55.8123 20.4897 54.9858 17.6507C54.3395 15.4308 54.3341 12.1478 55.1037 9.97561C55.6112 8.54335 56.5702 7.31344 57.9824 6.678C59.6287 5.93721 61.5902 5.95142 63.1977 6.78335C64.6625 7.5417 65.5785 8.93256 65.9861 10.5187C66.5346 12.652 66.53 14.8677 66.0944 17.0244Z" fill="#EEEEEE"/>
</g>
<defs>
<clipPath id="clip0_3075_99">
<rect width="171.119" height="28" fill="white"/>
</clipPath>
</defs>
</svg>
