<svg width="132" height="48" viewBox="0 0 132 48" fill="none" xmlns="http://www.w3.org/2000/svg">
<path d="M102.26 40.8531C100.539 45.4396 99.0268 48 94.5943 48H86.3557V40.3725H90.5796C92.196 40.3725 92.9255 39.9996 93.447 38.5064L93.8122 37.4926L97.8671 27.6065L104.294 9.81298H113.942L102.26 40.8531ZM28.7862 37.333H20.8599L20.0764 33.7602C18.3556 36.0532 15.8532 37.6536 12.3077 37.6538C5.16338 37.6538 0 32.0529 0 23.5196C0.000199444 14.8798 5.16325 9.49365 12.2031 9.49365C15.5926 9.49377 18.0434 10.8274 19.7642 12.854V0H28.7862V37.333ZM45.3191 9.49365C53.6108 9.49365 59.347 14.7739 59.347 22.7739C59.347 23.7337 59.3467 24.747 59.2425 25.8135H40.3132V26.0274C40.3137 29.2269 42.556 30.9873 45.5282 30.9873C48.0311 30.9871 49.7005 29.9734 50.2219 28.1601H59.0863C58.3562 33.2267 53.5066 37.6538 45.7889 37.6538C36.3504 37.6538 30.9264 32.2136 30.9261 23.6806C30.9261 14.9874 36.6105 9.49371 45.3191 9.49365ZM70.4946 12.854C72.2154 10.8273 74.6674 9.49365 78.057 9.49365C85.0967 9.49391 90.2585 14.88 90.2588 23.5196C90.2588 32.0527 85.0967 37.6538 77.9524 37.6538C74.4065 37.6538 71.9032 36.0536 70.1823 33.7602L69.4003 37.333H61.474V0H70.4946V12.854ZM125.166 9.81298H130.954V17.4405H125.166V27.2007C125.167 28.9601 125.897 29.7069 127.617 29.7071H130.954V37.333H124.228C119.118 37.333 116.145 34.5602 116.145 29.0668V17.4405H113.233L116.145 9.81298V2.08008H125.166V9.81298ZM14.5492 16.8531C11.2118 16.8531 9.17813 19.4137 9.17813 23.5737C9.17825 27.7335 11.2119 30.2929 14.5492 30.2929C17.8345 30.2929 19.8686 27.7335 19.8688 23.5737C19.8688 19.4137 17.8345 16.8531 14.5492 16.8531ZM75.7626 16.8531C72.425 16.8531 70.3915 19.4137 70.3915 23.5737C70.3915 27.7335 72.4252 30.2929 75.7626 30.2929C79.0474 30.2926 81.0805 27.7334 81.0805 23.5737C81.0805 19.4139 79.0476 16.8533 75.7626 16.8531ZM45.4753 16.0532C42.7118 16.0534 40.9393 17.5467 40.4178 20.1064H50.4296C49.908 17.4933 48.1869 16.0532 45.4753 16.0532ZM94.8492 9.3999C97.3503 9.40019 99.3781 11.4737 99.3781 14.0317C99.3781 16.5897 97.3503 18.6633 94.8492 18.6636C92.3479 18.6636 90.3202 16.59 90.3202 14.0317C90.3204 11.4735 92.3479 9.3999 94.8492 9.3999Z" fill="#EEEEEE"/>
</svg>
