<svg width="99" height="36" viewBox="0 0 99 36" fill="none" xmlns="http://www.w3.org/2000/svg">
<g clip-path="url(#clip0_3068_248)">
<path d="M11.9856 5.92409C11.1547 5.92409 10.394 6.11063 9.70801 6.48594C9.01979 6.86574 8.45147 7.36691 7.9987 7.99393C7.54591 8.62093 7.20405 9.32208 6.96859 10.093C6.73539 10.8638 6.61767 11.6459 6.61767 12.4325V27.564H0V0.431519H6.61767V4.14642C7.12254 2.95981 7.87192 2.04738 8.86809 1.40238C9.86201 0.75514 11.0461 0.431519 12.418 0.431519H16.5951V5.92409H11.9856Z" fill="#EEEEEE"/>
<path d="M31.6757 -0.00219727C33.9869 -0.00218923 35.995 0.446972 37.6952 1.34351C39.3931 2.24014 40.7156 3.4428 41.6552 4.95288C42.5946 6.46073 43.0633 8.11277 43.0634 9.90601V20.0261C43.0634 20.9587 43.3171 21.5339 43.8241 21.7498C44.3312 21.9654 45.1984 22.071 46.4276 22.071V27.5642H41.8163C40.8406 27.5642 40.0164 27.4202 39.3485 27.1326C38.6784 26.8471 38.1645 26.4356 37.8046 25.8962C37.4446 25.3568 37.2431 24.7099 37.2069 23.9548C36.5934 24.7818 35.7983 25.5014 34.8202 26.1082C33.8444 26.7194 32.7419 27.1891 31.5126 27.5105C30.2856 27.8318 28.9454 27.9958 27.4989 27.9958V27.9998C25.5112 27.9998 23.7653 27.6649 22.2665 26.9998C20.7656 26.3391 19.6066 25.4065 18.7938 24.2019C17.981 22.9973 17.5731 21.6083 17.5731 20.0261C17.5732 18.343 18.0056 16.8957 18.8749 15.6912C19.742 14.4934 20.9441 13.5224 22.4813 12.783C24.0186 12.0481 25.8729 11.572 28.0419 11.3562L36.4501 10.3806V9.69116C36.4501 8.72035 36.2509 7.91329 35.8524 7.26831C35.454 6.62107 34.9041 6.13714 34.2001 5.81128C33.4937 5.48993 32.6873 5.32593 31.7841 5.32593H29.3983C28.4952 5.32593 27.6822 5.49007 26.9579 5.81128C26.2357 6.13714 25.6622 6.58712 25.2479 7.15796C24.8314 7.7332 24.5715 8.45009 24.4628 9.31519H17.7362C17.845 7.37354 18.4698 5.70616 19.6063 4.30835C20.7451 2.90599 22.1649 1.83816 23.8651 1.10327C25.563 0.368496 27.3902 -0.00219727 29.3417 -0.00219727H31.6757ZM29.2352 16.0955C28.151 16.2055 27.2474 16.4145 26.5253 16.7156C25.8007 17.0212 25.2389 17.4176 24.8427 17.9031C24.4443 18.3884 24.245 19.0243 24.245 19.8152C24.245 20.7478 24.6322 21.4987 25.411 22.074C26.1898 22.6493 27.2294 22.9343 28.5311 22.9343C30.1927 22.9343 31.614 22.6395 32.7889 22.0486C33.964 21.453 34.8682 20.6557 35.4999 19.6511C36.1315 18.6466 36.4501 17.498 36.4501 16.2058V15.0867L29.2352 16.0955Z" fill="#EEEEEE"/>
<path d="M53.4256 27.5685L42.5765 0.431519H49.3029L55.4315 15.8845C55.6488 16.3856 55.8458 16.9857 56.0292 17.6868C56.2103 18.388 56.4435 19.2398 56.7333 20.2443H56.8963C57.2224 19.242 57.4827 18.406 57.682 17.7408C57.8812 17.0755 58.0691 16.4777 58.2524 15.9384L64.2747 0.431519H70.9444L60.152 27.5663H53.4256V27.5685Z" fill="#EEEEEE"/>
<path d="M84.0687 -0.00219727C86.3801 -0.0021447 88.3886 0.446943 90.0883 1.34351C91.7862 2.24011 93.1086 3.44287 94.0482 4.95288C94.987 6.46073 95.4573 8.11277 95.4574 9.90601V20.0261C95.4574 20.9588 95.7099 21.534 96.2172 21.7498C96.7244 21.9654 97.5913 22.071 98.8207 22.071V27.5642H94.2094C93.2336 27.5642 92.4094 27.4201 91.7416 27.1326C91.0712 26.8471 90.5565 26.4356 90.1967 25.8962C89.8369 25.3569 89.6362 24.7097 89.6 23.9548C88.9864 24.7818 88.1916 25.5014 87.2133 26.1082C86.2375 26.7193 85.135 27.1891 83.9056 27.5105C82.6787 27.8318 81.3385 27.9958 79.892 27.9958V27.9998C77.9042 27.9998 76.1583 27.6649 74.6595 26.9998C73.1586 26.3391 71.9996 25.4065 71.1869 24.2019C70.3741 22.9973 69.9662 21.6083 69.9662 20.0261C69.9662 18.343 70.3987 16.8957 71.2679 15.6912C72.1351 14.4934 73.3372 13.5224 74.8744 12.783C76.4117 12.0481 78.266 11.572 80.4349 11.3562L88.8431 10.3806V9.69116C88.8431 8.72048 88.6441 7.91325 88.2465 7.26831C87.8479 6.62107 87.2973 6.13714 86.5931 5.81128C85.8866 5.49 85.0804 5.32594 84.1771 5.32593H81.7914C80.8883 5.32593 80.0753 5.49007 79.351 5.81128C78.6287 6.13714 78.0553 6.58712 77.641 7.15796C77.2245 7.7332 76.9646 8.45008 76.8558 9.31519H70.1293C70.238 7.37354 70.8629 5.70616 71.9994 4.30835C73.1382 2.90599 74.5579 1.83816 76.2582 1.10327C77.9561 0.3685 79.7834 -0.00219727 81.7347 -0.00219727H84.0687ZM81.6283 16.0955C80.5441 16.2055 79.6405 16.4145 78.9183 16.7156C78.1939 17.0212 77.6319 17.4176 77.2357 17.9031C76.8374 18.3884 76.6381 19.0243 76.6381 19.8152C76.6381 20.7478 77.0253 21.4987 77.8041 22.074C78.5829 22.6493 79.6225 22.9343 80.9242 22.9343C82.5861 22.9343 84.0079 22.6396 85.183 22.0486C86.3579 21.453 87.2614 20.6556 87.8929 19.6511C88.5246 18.6466 88.8431 17.4981 88.8431 16.2058V15.0867L81.6283 16.0955Z" fill="#EEEEEE"/>
</g>
<defs>
<clipPath id="clip0_3068_248">
<rect width="98.8235" height="28" fill="white"/>
</clipPath>
</defs>
</svg>
